<?xml version="1.0" standalone="no"?><!DOCTYPE svg PUBLIC "-//W3C//DTD SVG 1.1//EN" "http://www.w3.org/Graphics/SVG/1.1/DTD/svg11.dtd"><svg t="1744813490361" class="icon" viewBox="0 0 1024 1024" version="1.1" xmlns="http://www.w3.org/2000/svg" p-id="7773" xmlns:xlink="http://www.w3.org/1999/xlink" width="200" height="200"><path d="M531.157333 543.146667a11.008 11.008 0 0 1-11.264-10.368c-0.469333-6.784 4.778667-10.069333 11.264-10.538667 5.973333-0.256 10.069333 3.285333 10.282667 9.130667 0 6.570667-4.565333 10.112-10.282667 11.733333z m-26.112 0c-5.76-0.725333-10.538667-4.010667-11.008-9.898667-0.469333-6.570667 4.266667-10.325333 10.794667-11.008 6.442667-0.725333 10.752 3.029333 11.008 9.386667 0.213333 6.570667-4.096 10.325333-10.794667 11.52z m-16.042666-7.552c-0.426667 4.010667-4.522667 7.509333-11.264 7.04-6.442667-0.426667-10.026667-4.224-9.557334-10.794667 0.469333-6.826667 5.248-10.069333 11.733334-10.069333 6.698667 0.682667 9.813333 4.693333 9.088 13.824z m66.56-3.498667c0-25.813333-22.485333-48.810667-48.128-48.597333-29.44 0.469333-49.792 21.12-50.517334 48.128-0.469333 25.6 23.466667 48.554667 49.578667 48.554666 26.837333 0 48.64-21.589333 49.066667-48.085333z m-21.546667 92.928c-0.213333-4.48 1.194667-9.173333 1.706667-14.336 1.152-8.661333-5.76-15.957333-13.909334-13.610667-20.138667 6.570667-37.589333 0.256-54.826666-7.978666-9.344-4.437333-9.344-4.693333-10.794667 5.888-1.408 11.52-6.912 20.906667-18.432 24.874666-11.733333 3.968-22.997333 2.133333-31.573333-8.234666a26.282667 26.282667 0 0 1-3.413334-29.312c5.077333-9.856 18.005333-17.365333 27.562667-16.213334 11.946667 1.408 13.44-1.408 10.538667-13.141333-3.84-15.957333-4.266667-31.914667 3.584-47.36 5.546667-10.581333 3.370667-16.938667-7.68-22.314667-2.602667-1.194667-5.248-2.133333-7.850667-3.285333-10.325333-4.266667-17.066667-15.744-14.634667-25.344a26.453333 26.453333 0 0 1 24.192-18.773333c11.264 0.426667 21.077333 9.130667 22.272 19.925333 0.213333 2.133333 0 4.48 0.469334 6.570667 1.450667 9.642667 9.386667 13.653333 18.432 10.112 16.768-6.101333 33.536-8.234667 51.029333-1.194667 9.301333 4.010667 14.336 0.256 13.866667-9.6a36.181333 36.181333 0 0 1 31.573333-38.954667c17.28-2.133333 34.773333 10.538667 39.296 28.885334 5.034667 20.394667-20.565333 43.861333-42.368 38.698666-3.370667-0.725333-6.698667-3.072-9.6 0.682667-3.072 4.010667-0.682667 7.253333 1.237333 10.581333 11.690667 20.650667 12.202667 41.514667 0.682667 61.696-7.168 12.458667-1.92 19.968 11.989333 19.712a42.752 42.752 0 0 1 44.8 40.362667v1.664c0.426667 24.874667-19.626667 45.056-44.330666 45.056a44.458667 44.458667 0 0 1-43.818667-45.056z m186.794667 119.893333h-34.005334c-8.874667-0.256-10.325333-3.072-6.229333-10.581333 11.946667-21.802667 20.821333-44.8 22.997333-69.674667a36.096 36.096 0 0 1 2.389334-9.173333c1.408-3.754667-1.194667-9.6 3.584-11.008 4.778667-1.194667 7.68 3.968 10.752 6.570667l23.978666 22.314666a39.466667 39.466667 0 0 1 14.592 27.648c1.194667 11.733333 4.778667 22.784 5.76 34.517334 0.426667 6.826667-1.450667 9.386667-8.405333 9.386666h-35.413333z m-420.693334 0h-34.986666c-5.76 0-9.6-1.664-8.618667-8.234666l6.698667-39.424c2.389333-15.232 14.848-22.997333 24.448-33.28 5.717333-6.144 12.202667-11.093333 18.645333-16.682667 1.92-1.621333 4.096-3.754667 6.698667-2.56 3.114667 1.152 3.114667 3.712 3.370666 6.314667 2.133333 30.293333 11.008 58.453333 25.856 84.906666 4.053333 6.826667 0.938667 9.173333-5.973333 9.173334l-36.181333-0.213334z m211.413334-65.024h104.106666c6.528 0 10.325333-1.152 12.714667-8.448 9.386667-29.312 13.653333-59.349333 14.634667-89.856 2.602667-61.952-8.874667-121.770667-31.616-179.498666a649.173333 649.173333 0 0 0-93.397334-161.92c-5.248-6.570667-9.344-5.418667-13.866666 0.213333-9.813333 12.928-20.352 25.6-29.44 39.210667-34.730667 53.76-64 110.293333-80.725334 172.245333-10.069333 36.821333-16.512 74.624-16.768 112.384-0.213333 35.413333 5.76 70.4 15.786667 104.661333 2.176 7.978667 6.016 10.538667 14.165333 10.538667l104.405334 0.469333z m176.938666-115.2c-0.469333 66.389333-9.813333 119.466667-34.005333 169.173334-6.698667 13.653333-8.362667 14.336-21.76 6.826666a15.488 15.488 0 0 1-3.413333-1.877333c-18.645333-14.805333-40.192-15.957333-62.933334-15.274667-44.074667 0.938667-88.106667 0.469333-132.181333 0a46.037333 46.037333 0 0 0-29.013333 8.234667c-4.522667 3.029333-9.301333 5.376-14.08 8.192-15.573333 9.173333-15.786667 9.173333-23.722667-7.253333A367.658667 367.658667 0 0 1 341.333333 653.354667c-10.325333-47.829333-9.386667-95.701333-2.901333-143.786667 4.053333-30.72 12.458667-60.8 22.528-90.112 17.493333-51.2 41.642667-98.816 70.613333-144.810667 21.76-34.56 45.824-67.584 72.106667-98.986666 6.698667-7.765333 10.24-5.632 15.530667 0.682666 34.005333 40.832 64.426667 84.224 90.538666 130.261334 28.970667 50.901333 52.181333 104.149333 65.109334 160.938666 8.405333 35.925333 14.848 71.808 13.653333 97.152zM505.045333 853.333333l-28.032-37.546666c-11.221333-18.56-17.92-38.698667-22.229333-59.605334-2.133333-10.069333 0.682667-13.354667 11.690667-13.354666h89.6c11.008 0 12.928 2.346667 10.752 13.610666a168.618667 168.618667 0 0 1-41.642667 86.357334c-3.114667 3.242667-5.546667 7.04-8.405333 10.538666h-11.733334z" fill="#FF8618" p-id="7774"></path></svg>