<?xml version="1.0" standalone="no"?><!DOCTYPE svg PUBLIC "-//W3C//DTD SVG 1.1//EN" "http://www.w3.org/Graphics/SVG/1.1/DTD/svg11.dtd"><svg t="1744988479996" class="icon" viewBox="0 0 1024 1024" version="1.1" xmlns="http://www.w3.org/2000/svg" p-id="2618" xmlns:xlink="http://www.w3.org/1999/xlink" width="200" height="200"><path d="M512 0c282.752 0 512 229.248 512 512s-229.248 512-512 512S0 794.752 0 512 229.248 0 512 0zM410.24 682.592c7.456 27.52 6.656 53.248-1.024 76.448l-2.784 7.68c-1.024 2.592-2.208 5.12-3.328 7.52a143.731 143.731 0 0 1-23.68 34.56c-29.792 32.384-71.328 44.672-89.184 34.336-19.2-11.168-9.632-56.96 24.928-93.44 37.152-39.168 90.464-64.384 90.464-64.384v-0.128z m422.88-463.424C809.984 128.16 659.168 98.24 516.448 148.992c-84.864 30.176-176.8 77.568-242.912 139.392-78.624 73.44-91.136 137.44-85.984 164.192C205.76 546.912 335.04 608.608 388.224 654.4v0.256c-15.648 7.68-130.4 65.248-157.28 124.8-28.8 62.72 4.48 107.552 26.24 113.28 67.2 18.592 136.32-15.36 173.44-70.368 35.84-53.792 32.672-122.912 17.248-156.832 21.152-5.76 46.08-8.32 78.08-4.448 89.632 10.24 107.552 66.56 103.68 89.6-3.84 23.008-22.3 36.448-28.768 40.288-6.4 3.872-8.32 5.12-7.712 7.712 0.64 3.84 3.872 3.84 8.96 3.2 7.04-1.28 46.752-19.2 48.672-62.752 1.92-55.04-50.592-116.448-144-115.2-38.4 0.672-62.752 3.872-80 10.912a15.327 15.327 0 0 0-4.48-4.48c-57.6-62.08-164.48-105.6-160-188.16 1.28-30.08 12.16-109.408 204.8-205.408 158.08-78.752 284.192-56.96 305.952-8.96 31.264 68.448-67.232 195.84-231.712 214.368-62.72 7.04-95.36-17.248-103.712-26.24-8.928-9.6-10.208-10.24-13.408-8.288-5.12 2.56-1.92 10.88 0 16 5.12 12.8 24.96 35.2 59.552 46.72 30.048 9.6 103.68 15.328 192-19.2 99.168-38.368 176.608-145.28 154.208-234.88z" fill="#CC6699" p-id="2619"></path></svg>