<?xml version="1.0" standalone="no"?><!DOCTYPE svg PUBLIC "-//W3C//DTD SVG 1.1//EN" "http://www.w3.org/Graphics/SVG/1.1/DTD/svg11.dtd"><svg t="1744989239119" class="icon" viewBox="0 0 1026 1024" version="1.1" xmlns="http://www.w3.org/2000/svg" p-id="8127" xmlns:xlink="http://www.w3.org/1999/xlink" width="200.390625" height="200"><path d="M291.84 803.84c-74.24 0-151.04-28.16-207.36-84.48C30.72 663.04 0 588.8 0 512s30.72-151.04 87.04-207.36c110.08-110.08 289.28-115.2 404.48-7.68l40.96 40.96-56.32 56.32-40.96-40.96c-84.48-76.8-215.04-74.24-294.4 7.68C102.4 401.92 79.36 455.68 79.36 512s23.04 110.08 61.44 151.04c84.48 81.92 217.6 81.92 302.08 0l250.88-238.08c23.04-23.04 53.76-35.84 89.6-35.84 69.12 0 125.44 56.32 125.44 125.44S852.48 640 783.36 640c-30.72 0-58.88-10.24-81.92-30.72l51.2-58.88c20.48 17.92 48.64 15.36 64-5.12s15.36-48.64-5.12-64c-17.92-15.36-46.08-15.36-64 2.56l-250.88 238.08c-51.2 51.2-125.44 81.92-204.8 81.92z" fill="#0661A8" p-id="8128"></path><path d="M783.36 752.64c-58.88 0-117.76-23.04-163.84-66.56l53.76-56.32c64 61.44 161.28 58.88 225.28-2.56a163.84 163.84 0 0 0 0-227.84 163.84 163.84 0 0 0-227.84 0L419.84 640c-71.68 71.68-184.32 69.12-256 0-71.68-71.68-69.12-184.32 0-256 66.56-66.56 171.52-69.12 243.2-10.24l2.56 2.56 40.96 38.4-56.32 56.32L358.4 435.2c-40.96-33.28-99.84-30.72-135.68 7.68-38.4 38.4-38.4 102.4 0 143.36 38.4 38.4 102.4 38.4 143.36 0l250.88-240.64c46.08-46.08 104.96-69.12 168.96-69.12 133.12 0 240.64 107.52 240.64 240.64 0 64-25.6 125.44-69.12 168.96-48.64 40.96-110.08 66.56-174.08 66.56z" fill="#37B1DF" p-id="8129"></path></svg>